<svg mlns="http://www.w3.org/2000/svg">
<symbol id="mastodon-svg-logo-full" viewBox="0 0 841.89 306.31">
<defs><style>.cls-1{fill:#fff;}</style></defs><path class="cls-1" d="M305.77,186.55a30.75,30.75,0,0,1,10.41-8.94,27.17,27.17,0,0,1,12.69-3.1,23.44,23.44,0,0,1,7.62,1.17,16.79,16.79,0,0,1,5.92,3.46,15.34,15.34,0,0,1,3.85,5.56,19.73,19.73,0,0,1,1.35,7.56,37.44,37.44,0,0,1-.5,5.84q-.5,3.21-1.14,6.41l-8.48,40.77H320.67l8.41-40.48q.72-3.42,1-5.49a29.16,29.16,0,0,0,.25-3.49,9.48,9.48,0,0,0-.39-2.78,5.68,5.68,0,0,0-3.53-3.78,9.41,9.41,0,0,0-3.49-.57,14.67,14.67,0,0,0-8.05,2.42,21.76,21.76,0,0,0-6.49,6.63,25.64,25.64,0,0,0-2.49,4.85,39.05,39.05,0,0,0-1.86,6.49l-7.48,36.2H279.69l8.41-40.48q.7-3.42,1-5.49a29.16,29.16,0,0,0,.25-3.49,9.48,9.48,0,0,0-.39-2.78,5.68,5.68,0,0,0-3.53-3.78,9.45,9.45,0,0,0-3.49-.57,14.48,14.48,0,0,0-7.45,2.07,21.23,21.23,0,0,0-6.24,5.7,26.81,26.81,0,0,0-3,5.38,38.29,38.29,0,0,0-2.14,7.09l-7.56,36.35H238.7L253,176.22h14.33v8.69h.28a30.46,30.46,0,0,1,4-3.95,29.6,29.6,0,0,1,5-3.32,28.3,28.3,0,0,1,5.73-2.28,23.55,23.55,0,0,1,6.35-.85,18.24,18.24,0,0,1,10.76,3.1,15.62,15.62,0,0,1,6.06,8.94Z"/><path class="cls-1" d="M420.74,193.4a19.55,19.55,0,0,1-2.81,10.37,23.58,23.58,0,0,1-8.31,7.84,44.94,44.94,0,0,1-13.54,4.95,89.87,89.87,0,0,1-18.53,1.71c-.81,0-1.83,0-3.07-.07v.43a17.91,17.91,0,0,0,1.11,6.59,11.28,11.28,0,0,0,3.21,4.6,13.13,13.13,0,0,0,5.09,2.6,25.25,25.25,0,0,0,6.7.82,53.8,53.8,0,0,0,11.69-1.36A46,46,0,0,0,413,228.25l-3.06,14.83A55.56,55.56,0,0,1,399.82,246a62.7,62.7,0,0,1-12.08,1.11A38.47,38.47,0,0,1,374.48,245a24.86,24.86,0,0,1-9.3-5.81,23.44,23.44,0,0,1-5.45-8.87A34.36,34.36,0,0,1,358,219a52.75,52.75,0,0,1,1.14-10.9,50.87,50.87,0,0,1,3.35-10.37,44.69,44.69,0,0,1,5.49-9.2,36.42,36.42,0,0,1,7.59-7.34,35.66,35.66,0,0,1,9.66-4.88,36.41,36.41,0,0,1,11.61-1.78,33.88,33.88,0,0,1,9.91,1.35,22.74,22.74,0,0,1,7.52,3.81,17.12,17.12,0,0,1,4.81,6A17.38,17.38,0,0,1,420.74,193.4Zm-17,0a5.38,5.38,0,0,0-1.85-4.07q-1.86-1.71-5.64-1.71a16,16,0,0,0-5.8,1.14,18.69,18.69,0,0,0-5.56,3.39,24.34,24.34,0,0,0-4.67,5.49,28.38,28.38,0,0,0-3.28,7.44,68.6,68.6,0,0,0,12.69-1,31,31,0,0,0,8.26-2.64,11.48,11.48,0,0,0,4.49-3.74A7.82,7.82,0,0,0,403.78,193.4Z"/><path class="cls-1" d="M477,190.12H459l-6.85,33.28c-.23,1-.41,2-.53,2.75a13.64,13.64,0,0,0-.18,2c0,1.76.48,3,1.43,3.67s2.61,1,5,1a47,47,0,0,0,6.2-.53c2.52-.36,4.77-.77,6.77-1.25l-2.78,14a54.46,54.46,0,0,1-7.45,1.43,62.3,62.3,0,0,1-7.59.5,30.57,30.57,0,0,1-8.48-1,16.08,16.08,0,0,1-5.88-2.95,11.56,11.56,0,0,1-3.42-4.71,16.76,16.76,0,0,1-1.11-6.27c0-.81.05-1.77.14-2.89a33.69,33.69,0,0,1,.65-4l7.27-35.06H429.3l2.92-13.9h12.83l4.06-19.32h16.82l-4,19.32h18Z"/><path class="cls-1" d="M510.34,247.07a39.44,39.44,0,0,1-11.73-1.54,21.62,21.62,0,0,1-8-4.31,16.5,16.5,0,0,1-4.59-6.66,23.89,23.89,0,0,1-1.47-8.52,28.08,28.08,0,0,1,.25-3.42c.17-1.28.44-2.92.82-4.92l8.56-41.48H511l-8.7,42.05a30.67,30.67,0,0,0-.5,3.17c-.09,1-.14,1.87-.14,2.68a9.21,9.21,0,0,0,2.35,6.7q2.36,2.42,7.63,2.42a17.89,17.89,0,0,0,6.38-1,12.1,12.1,0,0,0,4.52-3,15.46,15.46,0,0,0,3-4.77,33.23,33.23,0,0,0,1.89-6.31l8.7-41.91H553l-9.62,46.54a40.5,40.5,0,0,1-3.1,9.09,24.42,24.42,0,0,1-6,7.77,28.56,28.56,0,0,1-9.69,5.41A43.56,43.56,0,0,1,510.34,247.07Z"/><path class="cls-1" d="M568.14,226.25h19.17l-3.92,19H564.22Z"/><path class="cls-1" d="M621.46,142.08h16.82l-17,81.89a23.93,23.93,0,0,0-.57,4.14,3.32,3.32,0,0,0,1.21,2.88,6.09,6.09,0,0,0,3.64.89,24,24,0,0,0,5.06-.57l-3.07,14.12c-1.09.23-2.49.45-4.2.64a44.55,44.55,0,0,1-4.92.28q-7.56,0-11.37-3.38T603.21,233a37.44,37.44,0,0,1,.93-7.76Z"/><path class="cls-1" d="M640.77,245.28l14.4-69.06H672l-14.4,69.06ZM658,160.39l3.71-18.31H679.4l-3.7,18.31Z"/><path class="cls-1" d="M712.4,176.22h18.54L728,190.12H709.55l-13,62.86a57.73,57.73,0,0,1-2.5,9,28.28,28.28,0,0,1-3.42,6.56,24.15,24.15,0,0,1-11.26,9,41.49,41.49,0,0,1-15,2.6,40.92,40.92,0,0,1-7.37-.64,32.5,32.5,0,0,1-5.74-1.5l2.85-13.47A25.7,25.7,0,0,0,659,266a26.63,26.63,0,0,0,4.56.43,18.75,18.75,0,0,0,6.77-1.07,12,12,0,0,0,4.74-3.28,17.68,17.68,0,0,0,3.24-5.56,48.44,48.44,0,0,0,2.21-8l12.19-58.37h-12.4l2.92-13.9h12.33l1.78-8.63a54.2,54.2,0,0,1,2.39-8.59,30.31,30.31,0,0,1,3.32-6.37A26.11,26.11,0,0,1,708,147.1a28.15,28.15,0,0,1,5.84-3.81,29.31,29.31,0,0,1,6.53-2.25,32.13,32.13,0,0,1,6.91-.74,43,43,0,0,1,8.16.74,55.93,55.93,0,0,1,6.52,1.61l-2.71,13.11a59.3,59.3,0,0,0-5.91-1.25,32.6,32.6,0,0,0-4.71-.39,14.62,14.62,0,0,0-6.34,1.29,11.8,11.8,0,0,0-4.63,4,19,19,0,0,0-2,3.85,28.08,28.08,0,0,0-1.47,5Z"/><path class="cls-1" d="M794.37,193.4a19.55,19.55,0,0,1-2.81,10.37,23.58,23.58,0,0,1-8.31,7.84,44.94,44.94,0,0,1-13.54,4.95,89.87,89.87,0,0,1-18.53,1.71c-.81,0-1.83,0-3.07-.07v.43a17.91,17.91,0,0,0,1.11,6.59,11.18,11.18,0,0,0,3.21,4.6,13.13,13.13,0,0,0,5.09,2.6,25.25,25.25,0,0,0,6.7.82,53.8,53.8,0,0,0,11.69-1.36,46,46,0,0,0,10.69-3.63l-3.06,14.83A55.56,55.56,0,0,1,773.45,246a62.78,62.78,0,0,1-12.08,1.11A38.47,38.47,0,0,1,748.11,245a24.86,24.86,0,0,1-9.3-5.81,23.44,23.44,0,0,1-5.45-8.87A34.36,34.36,0,0,1,731.58,219a52.75,52.75,0,0,1,1.14-10.9,50.87,50.87,0,0,1,3.35-10.37,44.69,44.69,0,0,1,5.49-9.2,36.42,36.42,0,0,1,7.59-7.34,35.74,35.74,0,0,1,9.65-4.88,36.52,36.52,0,0,1,11.62-1.78,33.88,33.88,0,0,1,9.91,1.35,22.74,22.74,0,0,1,7.52,3.81,17.12,17.12,0,0,1,4.81,6A17.38,17.38,0,0,1,794.37,193.4Zm-17,0a5.35,5.35,0,0,0-1.86-4.07q-1.84-1.71-5.63-1.71a16.12,16.12,0,0,0-5.81,1.14,18.77,18.77,0,0,0-5.55,3.39,24.09,24.09,0,0,0-4.67,5.49,28.38,28.38,0,0,0-3.28,7.44,68.6,68.6,0,0,0,12.69-1,31,31,0,0,0,8.26-2.64,11.48,11.48,0,0,0,4.49-3.74A7.82,7.82,0,0,0,777.41,193.4Z"/><path class="cls-1" d="M352.12,26.47c-4.1,1.33-8.22,2.59-12.37,3.74-3.2.89-4.71,2.93-5.59,6.1-3.63,13.07-7.82,25.95-12.68,38.64-5.44,14.21-16.85,21.1-30.31,25.71-.61,8.11,2.65,15.68,3.21,23.64.45,6.22,1.36,12.41,2.07,18.62a195.22,195.22,0,0,0,24.49-5.28c13.06-4,20.9-12.25,22.67-26.27,2-15.9,4.76-31.7,7.06-47.57,1.66-11.44,3-22.92,4.7-34.36C355.82,26.38,355.1,25.51,352.12,26.47Z"/><path class="cls-1" d="M270.92,151.35c5.28-1.26,10-1.87,15.41-4.39,5.91-2.79,7.43-7.75,6.4-14.07q-2.85-17.46-6.92-34.64c-4.16,2.47-6.6,7.85-12.5,7.39-1,8.1,1.77,15.81,2.55,23.72a59.53,59.53,0,0,1,.49,11.47,5.66,5.66,0,0,1-3.07,4.57l0-.06,0,0h0c3.31-8.85.61-17.6-.62-26.33-1.28-9-3.06-18-4.63-27-3.86,2.73-7.09,5.89-7.68,10.92-.31,2.58-1.51,3.89-4.37,3.92-6.94.08-13.89.75-20.83.63-8.5-.15-17-1-24.65-5.23-.08-2.43-.35-4.88-.2-7.3.7-11.47,1.43-22.95,2.34-34.4.31-4-.77-6.47-5.22-6.39,0,.65,0,1.31,0,2a4.69,4.69,0,0,1,2.18.56,1.52,1.52,0,0,1,.35.26c.33.36.69,1.25.52,3.44-.46,5.88-.88,11.74-1.26,17.51l0,.77s-.69,9-.91,13.42,0,5.73,0,8.84a7.34,7.34,0,0,0,.54,2.56c-.55,1-.34,2.34-.45,3.51-.61,6.56-1.45,13.13-1.64,19.71-.35,11.53-7.3,19-15.12,26.11l-1.11,1,1.11-1s-.33-.34-.32-.34a6,6,0,0,1,.84-1.86c8.85-8.92,11.93-19.86,12.62-32.18,1.2-21.42,3-42.8,2.67-64.27-10.18-1.22-12.33.52-12.8,10.37,0,.52-.08,1-.07,1.56.5,23.28-13.36,36.87-32.21,46.53-10.43,5.35-21.6,1.89-32.46.52-7.48-2.38-8.43-3.66-8.82-11.28-.29-5.7-.8-11.39-1.07-17.09-.25-5.36-1.64-10.15-6.09-13.6-12.3-.27-12.28-.27-12.72,11.34-.08,2.24-.49,4.47-.59,6.72-.3,6.23-2.54,11.51-7.37,15.59-1,5.65.32,11.06,1.66,16.51a34.76,34.76,0,0,0,7.35,14.83c3.63,4.15,8.84,6.3,13.76,9.56-3.52,1.6-6-.21-8.6-1.07a152.9,152.9,0,0,1-24.58-11c-4.26-2.3-7-5.35-7.91-10.68-2.61-16-4.34-32.11-5.86-48.24-.82-8.69-1.49-17.4-2.2-26.1.69.35,1.45.72,2.26,1.07,4.26,2.23,7.35,4.78,7.74,10.57A160,160,0,0,0,82.49,91.9l.2.73C84,97.52,85.49,103,90.9,106l2.13.55c0-.6.12-1.21.22-1.81-6-2.47-7.24-8.15-8.68-13.42A159.88,159.88,0,0,1,79,60c-.57-8.51-6.25-11.13-12.36-14-1.14-2.72-3.5-2.53-5.62-2-2.4.62-1.39,2.86-1.4,4.44-.09,11.68-.09,23.35-.11,35l-8.77-1c-2.28-.25-3.57.14-3.17,3.08,2.13,15.8,4,31.65,6.15,47.45.9,6.62,2.79,8.13,9.78,9.31l-.15-2.18-2.19-.48c-3.89-.95-4.67-2.34-5.3-6.94-1.15-8.33-2.22-16.83-3.26-25-.92-7.35-1.88-14.94-2.89-22.41a5.35,5.35,0,0,1,0-.69h.08a7.25,7.25,0,0,1,.77,0l6.19.68,3,.24q1.92,28.39,3.85,56.77a17.44,17.44,0,0,1,.3,3.12c-.44,5.57,2.65,7.65,7.67,8.1,7.11.65,14.22,1.35,21.31,2.17q24.38,2.83,48.74,5.83c2.44.29,4.53.95,5.77,3.62,5.87,12.68,7.55,25.58,2.85,39a281.71,281.71,0,0,1-17.27,38.48c-1.31,2.5-1.83,4,2.12,3.91,8-.13,16,.18,24,.31,7.16,2.09,14.51.36,21.72,1.13,3.68.39,4.26-1,3.65-4.42-1.95-11.08-4.1-22.11-2.37-33.55C184,197.22,187.19,185,194.5,174c2.3-3.46,6.23-5.53,7.75-9.56,4.17-2.71,8.86-3.65,13.69-4.43,16.31-2.64,33-2.58,49-7.3ZM118.6,127.28c-3.85-4.32-3-10.23-3.33-15.5-.64-12.32-.88-24.67-1.23-37a20.09,20.09,0,0,1,2.23,2.6,19.65,19.65,0,0,1,1.59,7.43c.14,3,.36,6,.56,9,.19,2.7.38,5.41.51,8.11.42,8.27,1.86,10.41,9.38,12.92l2.6.56c3,7,6.11,14.13,9.49,21.94C132,135.3,124.15,133.51,118.6,127.28ZM189.72,154a1.09,1.09,0,0,0-.18.73h0A1.09,1.09,0,0,1,189.72,154Zm6.49,14.8a24.75,24.75,0,0,0-3.51,4c-8.26,12.42-11.17,26.28-12.79,37-1.69,11.22.23,22.09,2.1,32.61l.29,1.64a6.87,6.87,0,0,1,.16,1.9,3.4,3.4,0,0,1-.58,0c-.26,0-.56,0-.88,0a45.09,45.09,0,0,0-4.76-.22c-1.37,0-2.75,0-4.13.08s-2.67.08-4,.08a33.78,33.78,0,0,1-6.69-.56c-.65-.18-1.37-.32-2.13-.45.8-7.25,1.29-14.56,2.74-21.67,4.83-23.78,12.1-46.21,36.31-57.91l1.09-.56A16,16,0,0,1,196.21,168.79Zm77.07-23.4h0"/>
</symbol></svg>
