<?xml version="1.0" encoding="UTF-8" standalone="no"?>
<svg
   xmlns:dc="http://purl.org/dc/elements/1.1/"
   xmlns:cc="http://creativecommons.org/ns#"
   xmlns:rdf="http://www.w3.org/1999/02/22-rdf-syntax-ns#"
   xmlns:svg="http://www.w3.org/2000/svg"
   xmlns="http://www.w3.org/2000/svg"
   viewBox="0 0 200 199.99999"
   version="1.1"
   id="svg82"
   width="200"
   height="200">
  <metadata
     id="metadata88">
    <rdf:RDF>
      <cc:Work
         rdf:about="">
        <dc:format>image/svg+xml</dc:format>
        <dc:type
           rdf:resource="http://purl.org/dc/dcmitype/StillImage" />
        <dc:title></dc:title>
      </cc:Work>
    </rdf:RDF>
  </metadata>
  <defs
     id="defs86" />
  <g
     id="g18"
     transform="translate(-0.53414289,4.1747812)"
     style="fill:#ffffff">
    <path
       class="cls-1"
       d="m 193.75148,27.347403 c -2.53638,0.819818 -5.08869,1.59188 -7.65693,2.313527 -1.98187,0.549197 -2.91843,1.814735 -3.44904,3.775401 -2.24987,8.089374 -4.84462,16.064672 -7.8506,23.91527 -3.36948,8.800425 -10.42945,13.063995 -18.76026,15.918754 -0.38207,5.017071 1.63697,9.705144 1.98984,14.629338 0.26532,3.854993 0.83839,7.694069 1.27616,11.527826 5.09931,-0.867568 10.1986,-1.751052 15.15731,-3.265986 8.08672,-2.470059 12.93929,-7.585295 14.03502,-16.263672 1.24167,-9.840438 2.94498,-19.633127 4.36971,-29.449692 1.02675,-7.081195 1.87575,-14.188916 2.91844,-21.267454 0.26796,-1.899638 -0.18837,-2.430267 -2.02965,-1.833312 z"
       id="path147"
       style="fill:#ffffff;stroke-width:0.265313" />
    <path
       class="cls-1"
       d="m 143.48801,104.64888 c 3.266,-0.79593 6.21361,-1.15941 9.55125,-2.7221 3.66133,-1.72454 4.59787,-4.794204 3.96113,-8.71022 q -1.75902,-10.800877 -4.28215,-21.439911 c -2.57619,1.530855 -4.08581,4.863177 -7.73652,4.573986 -0.62349,5.017063 1.09574,9.784733 1.57861,14.685055 0.23348,2.369238 0.53064,4.72256 0.2998,7.099774 a 3.4782479,3.4782479 0 0 1 -1.89963,2.825566 l 0.0293,-0.0319 0.016,-0.0186 h -0.0265 c 2.05352,-5.476053 0.38205,-10.896395 -0.38205,-16.2955 -0.81451,-5.598091 -1.91024,-11.169663 -2.87864,-16.741227 -2.38781,1.68473 -4.39092,3.642747 -4.75706,6.754863 -0.18571,1.591879 -0.93125,2.409039 -2.70088,2.430265 -4.29805,0.05043 -8.59877,0.464293 -12.89419,0.387354 -5.26115,-0.09282 -10.50107,-0.60757 -15.25546,-3.236808 -0.0505,-1.504332 -0.22023,-3.019265 -0.13002,-4.510327 0.43512,-7.102407 0.89146,-14.20218 1.44862,-21.296638 0.19632,-2.491281 -0.47226,-4.003564 -3.22621,-3.955806 0,0.405924 0,0.811855 0,1.217787 a 2.9370103,2.9370103 0 0 1 1.35044,0.344904 0.83042837,0.83042837 0 0 1 0.21491,0.161842 c 0.20694,0.225513 0.43245,0.774711 0.32367,2.122495 -0.28122,3.634784 -0.54123,7.266914 -0.78002,10.824757 l -0.016,0.477562 c 0,0 -0.42449,5.571564 -0.56246,8.306932 -0.13796,2.735378 0,3.544582 0,5.473409 a 4.4758233,4.4758233 0 0 0 0.3343,1.591869 c -0.33961,0.61818 -0.21491,1.448611 -0.28124,2.17026 -0.37675,4.064587 -0.8941,8.129171 -1.01614,12.204366 -0.21226,7.136917 -4.51032,11.777241 -9.357582,16.162861 l -0.684508,0.61021 0.681865,-0.61021 -0.196333,-0.21225 c 0.167143,-0.39002 0.244083,-0.86757 0.530617,-1.1488 5.476061,-5.523821 7.381001,-12.297252 7.810811,-19.922323 0.74552,-13.265642 1.84392,-26.49147 1.65555,-39.796897 -6.306484,-0.753485 -7.635692,0.326334 -7.927536,6.420562 -0.01595,0.323685 -0.04774,0.647363 -0.0425,0.968392 0.310416,14.411777 -8.267138,22.816883 -19.935585,28.80233 -6.457705,3.308449 -13.37441,1.170029 -20.097434,0.321034 -4.627046,-1.472488 -5.218695,-2.268423 -5.457478,-6.983024 -0.177762,-3.52601 -0.496133,-7.049358 -0.660625,-10.578017 -0.156536,-3.321714 -1.013501,-6.282604 -3.770096,-8.421019 -7.614465,-0.161842 -7.601203,-0.161842 -7.874475,7.022826 -0.05043,1.387584 -0.299802,2.767203 -0.366129,4.157448 -0.183068,3.857641 -1.573304,7.126295 -4.560725,9.649413 -0.594299,3.50213 0.196331,6.850373 1.026762,10.219848 0.841038,3.414556 2.255156,6.553218 4.552763,9.179813 2.241885,2.568225 5.473396,3.902743 8.513874,5.919114 -2.178214,0.98963 -3.714373,-0.13264 -5.319517,-0.66327 C 36.986277,98.687241 31.974519,96.270252 27.074196,93.62241 24.442298,92.19769 22.715115,90.30602 22.17918,87.010834 20.563425,77.101413 19.491561,67.136263 18.552358,57.149896 18.045611,51.769362 17.631724,46.380862 17.188648,40.992363 c 0.427156,0.214906 0.899414,0.445725 1.398198,0.663281 2.637212,1.37963 4.550112,2.958241 4.775626,6.539954 0.405931,6.102191 1.546778,12.533367 3.480906,19.63314 l 0.124697,0.453675 c 0.817162,3.027219 1.732489,6.423221 5.083384,8.280411 l 1.326565,0.339599 c 0.03448,-0.371442 0.07428,-0.745526 0.13796,-1.122273 -3.693149,-1.528201 -4.483778,-5.040941 -5.372574,-8.30428 -1.72719,-6.34363 -3.000691,-12.841135 -3.449067,-19.367824 -0.35021,-5.269103 -3.865603,-6.898127 -7.648962,-8.686331 -0.708385,-1.682082 -2.167603,-1.565347 -3.480899,-1.223094 -1.477795,0.403276 -0.84635,1.788211 -0.84635,2.76721 -0.05306,7.224461 -0.05043,14.451578 -0.06631,21.676037 C 10.839736,62.442886 9.0303064,62.23594 7.2208769,62.03961 5.812066,61.888375 5.0161293,62.127201 5.2602108,63.944557 c 1.3265648,9.784726 2.4621065,19.593337 3.8045837,29.375413 0.5624671,4.099086 1.7298395,5.040939 6.0570895,5.765245 -0.0292,-0.453688 -0.06105,-0.904721 -0.09286,-1.355744 L 13.670623,97.434962 C 11.264239,96.845965 10.778718,95.983707 10.388706,93.139543 9.6670601,87.979222 9.0037777,82.731341 8.364377,77.639993 7.7886467,73.092529 7.1943482,68.388534 6.5708599,63.764141 a 3.4490635,3.4490635 0 0 1 -0.031834,-0.424503 h 0.053059 a 4.3696982,4.3696982 0 0 1 0.4722583,0.02923 q 1.9182075,0.206937 3.8364148,0.424492 l 1.825355,0.148582 q 1.188599,17.571652 2.387809,35.143313 c 0.06894,0.642056 0.236133,1.292065 0.185718,1.926165 -0.265307,3.44906 1.642287,4.73583 4.746444,5.01707 4.401539,0.4006 8.803072,0.83308 13.191341,1.34247 q 15.085674,1.75372 30.155433,3.6056 c 1.512278,0.18305 2.807002,0.59164 3.571103,2.24454 3.63479,7.84795 4.674811,15.8312 1.766982,24.14345 -2.883942,8.24857 -6.616897,16.11243 -10.689441,23.82507 -0.814508,1.54412 -1.138193,2.45414 1.310646,2.41699 4.958687,-0.0823 9.920036,0.11409 14.881375,0.19368 4.430726,1.28942 8.980823,0.22286 13.446039,0.69511 2.273727,0.24144 2.637201,-0.59164 2.260454,-2.73271 -1.209817,-6.85833 -2.541691,-13.68748 -1.472471,-20.76866 1.204507,-7.95938 3.183747,-15.54732 7.69407,-22.34994 1.42473,-2.14373 3.854985,-3.42253 4.799505,-5.92178 2.57883,-1.67677 5.48401,-2.2578 8.47408,-2.74068 10.09515,-1.63432 20.42906,-1.59187 30.34646,-4.51031 z M 49.198573,89.743624 C 46.810756,87.071923 47.312196,83.415914 47.142397,80.152565 46.747086,72.524829 46.5932,64.881171 46.375643,57.242828 a 11.989476,11.989476 0 0 1 1.387586,1.610444 c 0.581036,1.249619 0.896758,2.756594 0.981661,4.600525 0.08489,1.843921 0.220207,3.743563 0.344904,5.571553 0.116734,1.671469 0.233476,3.345602 0.318371,5.019715 0.265315,5.115235 1.151461,6.444446 5.805045,7.996525 l 1.607792,0.350216 5.874022,13.57605 C 57.468363,94.712911 52.639676,93.609214 49.198573,89.743624 Z m 44.041884,16.534286 a 0.68185334,0.68185334 0 0 0 -0.114072,0.45633 v 0 a 0.68185334,0.68185334 0 0 1 0.100832,-0.45633 z m 4.014183,9.16388 a 15.319148,15.319148 0 0 0 -2.170252,2.46741 c -5.112582,7.69407 -6.916704,16.27162 -7.916937,22.89117 -1.061245,6.94854 0.143273,13.67686 1.297375,20.18498 l 0.180416,1.01349 a 4.3484732,4.3484732 0 0 1 0.09821,1.18064 1.9341287,1.9341287 0 0 1 -0.355511,0.0265 5.3062516,5.3062516 0 0 1 -0.546545,-0.0344 27.833943,27.833943 0 0 0 -2.944974,-0.13796 c -0.85165,0 -1.705956,0.0266 -2.557607,0.0531 -0.851651,0.0266 -1.652907,0.0477 -2.475375,0.0477 a 21.198475,21.198475 0 0 1 -4.144178,-0.3449 12.928682,12.928682 0 0 0 -1.326558,-0.28123 c 0.496127,-4.48377 0.795934,-9.02063 1.692686,-13.41155 2.987419,-14.71955 7.489777,-28.60335 22.474632,-35.85434 0.228166,-0.10881 0.451034,-0.22818 0.676545,-0.34226 a 9.8696282,9.8696282 0 0 1 -1.995146,2.5417 z m 47.69525,-14.48871 v 0"
       id="path149"
       style="fill:#ffffff;stroke-width:0.265313" />
  </g>
</svg>
